<svg width="24" height="24" fill="currentColor" viewBox="0 0 24 24" transform="" id="injected-svg"><!--Boxicons v3.0 https://boxicons.com | License  https://docs.boxicons.com/free--><path d="m21.83,3.98c-.07-.42-.4-.74-.81-.81-.24-.04-5.8-.97-8.81,2.04-1.91,1.91-2.23,4.84-2.21,6.79h0v9h2v-6.05c.34.03.75.05,1.21.05,1.95,0,4.74-.37,6.58-2.21,3.01-3.01,2.08-8.58,2.04-8.81Z"></path><path d="m9,14.99v-2.99h0c-.02-1.49.16-3.51,1-5.32-2.51-2.29-6.87-1.57-7.06-1.54-.42.07-.74.4-.81.81-.03.19-.79,4.75,1.69,7.23,1.45,1.45,3.59,1.79,5.18,1.82Z"></path></svg>